<svg id="visual" viewBox="0 0 960 540" width="960" height="540" xmlns="http://www.w3.org/2000/svg" xmlns:xlink="http://www.w3.org/1999/xlink" version="1.1"><rect x="0" y="0" width="960" height="540" fill="#0f0f10"></rect><defs><linearGradient id="grad1_0" x1="43.8%" y1="0%" x2="100%" y2="100%"><stop offset="14.444444444444446%" stop-color="#0f0f10" stop-opacity="1"></stop><stop offset="85.55555555555554%" stop-color="#0f0f10" stop-opacity="1"></stop></linearGradient></defs><defs><linearGradient id="grad2_0" x1="0%" y1="0%" x2="56.3%" y2="100%"><stop offset="14.444444444444446%" stop-color="#0f0f10" stop-opacity="1"></stop><stop offset="85.55555555555554%" stop-color="#0f0f10" stop-opacity="1"></stop></linearGradient></defs><g transform="translate(960, 0)"><path d="M0 432C-46.8 404.2 -93.6 376.5 -149.2 360.3C-204.9 344.2 -269.3 339.7 -305.5 305.5C-341.6 271.3 -349.5 207.4 -365.9 151.5C-382.2 95.7 -407.1 47.8 -432 0L0 0Z" fill="#4938DC"></path></g><g transform="translate(0, 540)"><path d="M0 -432C63.6 -433.5 127.3 -434.9 165.3 -399.1C203.4 -363.3 215.8 -290.3 245.4 -245.4C275 -200.4 321.7 -183.5 355.7 -147.3C389.7 -111.1 410.8 -55.6 432 0L0 0Z" fill="#4938DC"></path></g></svg>