<svg id="visual" viewBox="0 0 960 600" width="960" height="600" xmlns="http://www.w3.org/2000/svg" xmlns:xlink="http://www.w3.org/1999/xlink" version="1.1"><rect x="0" y="0" width="960" height="600" fill="#0f0f10"></rect><defs><linearGradient id="grad1_0" x1="37.5%" y1="0%" x2="100%" y2="100%"><stop offset="17.999999999999996%" stop-color="#0f0f10" stop-opacity="1"></stop><stop offset="82%" stop-color="#0f0f10" stop-opacity="1"></stop></linearGradient></defs><defs><linearGradient id="grad2_0" x1="0%" y1="0%" x2="62.5%" y2="100%"><stop offset="17.999999999999996%" stop-color="#0f0f10" stop-opacity="1"></stop><stop offset="82%" stop-color="#0f0f10" stop-opacity="1"></stop></linearGradient></defs><g transform="translate(960, 0)"><path d="M0 452.8C-58.6 437.8 -117.1 422.7 -163.4 394.5C-209.7 366.3 -243.6 324.9 -288.5 288.5C-333.4 252.1 -389.2 220.6 -418.4 173.3C-447.6 126 -450.2 63 -452.8 0L0 0Z" fill="#4938DC"></path></g><g transform="translate(0, 600)"><path d="M0 -452.8C63 -451.2 126 -449.6 173.3 -418.4C220.6 -387.2 252.3 -326.4 276.5 -276.5C300.7 -226.5 317.4 -187.4 345.5 -143.1C373.7 -98.8 413.3 -49.4 452.8 0L0 0Z" fill="#4938DC"></path></g></svg>